<mxfile host="app.diagrams.net" agent="Mozilla/5.0 (Windows NT 10.0; Win64; x64) AppleWebKit/537.36 (KHTML, like Gecko) Chrome/135.0.0.0 Safari/537.36 Edg/135.0.0.0" version="26.2.12">
  <diagram name="Page-1" id="9oE_kHKaGMRPdsqjz-1H">
    <mxGraphModel grid="1" page="1" gridSize="10" guides="1" tooltips="1" connect="1" arrows="1" fold="1" pageScale="1" pageWidth="826" pageHeight="1169" math="0" shadow="0">
      <root>
        <mxCell id="0" />
        <mxCell id="1" parent="0" />
        <mxCell id="hQrvFFB87dNUmF5vb5FR-1" value="&lt;font size=&quot;3&quot;&gt;CIV 6 community hub&lt;/font&gt;" style="rounded=1;whiteSpace=wrap;html=1;" vertex="1" parent="1">
          <mxGeometry x="140" y="10" width="550" height="60" as="geometry" />
        </mxCell>
        <mxCell id="hQrvFFB87dNUmF5vb5FR-2" value="Home" style="rounded=1;whiteSpace=wrap;html=1;" vertex="1" parent="1">
          <mxGeometry x="140" y="70" width="120" height="20" as="geometry" />
        </mxCell>
        <mxCell id="hQrvFFB87dNUmF5vb5FR-3" value="Leaders" style="rounded=1;whiteSpace=wrap;html=1;" vertex="1" parent="1">
          <mxGeometry x="260" y="70" width="120" height="20" as="geometry" />
        </mxCell>
        <mxCell id="hQrvFFB87dNUmF5vb5FR-4" value="Victory Strategies" style="rounded=1;whiteSpace=wrap;html=1;" vertex="1" parent="1">
          <mxGeometry x="380" y="70" width="120" height="20" as="geometry" />
        </mxCell>
        <mxCell id="hQrvFFB87dNUmF5vb5FR-5" value="Expansions" style="rounded=1;whiteSpace=wrap;html=1;" vertex="1" parent="1">
          <mxGeometry x="500" y="70" width="120" height="20" as="geometry" />
        </mxCell>
        <mxCell id="hQrvFFB87dNUmF5vb5FR-7" value="About" style="rounded=1;whiteSpace=wrap;html=1;" vertex="1" parent="1">
          <mxGeometry x="620" y="70" width="70" height="20" as="geometry" />
        </mxCell>
        <mxCell id="hQrvFFB87dNUmF5vb5FR-8" value="" style="verticalLabelPosition=bottom;verticalAlign=top;html=1;shape=mxgraph.basic.rect;fillColor2=none;strokeWidth=1;size=20;indent=5;" vertex="1" parent="1">
          <mxGeometry x="140" y="90" width="550" height="150" as="geometry" />
        </mxCell>
        <mxCell id="hQrvFFB87dNUmF5vb5FR-11" value="" style="line;strokeWidth=2;html=1;rotation=15;" vertex="1" parent="1">
          <mxGeometry x="129.49" y="163.88" width="570" height="10" as="geometry" />
        </mxCell>
        <mxCell id="hQrvFFB87dNUmF5vb5FR-13" value="" style="line;strokeWidth=2;html=1;rotation=-15;" vertex="1" parent="1">
          <mxGeometry x="133.3" y="162.23" width="563.58" height="10" as="geometry" />
        </mxCell>
        <mxCell id="hQrvFFB87dNUmF5vb5FR-14" value="Text" style="rounded=1;whiteSpace=wrap;html=1;" vertex="1" parent="1">
          <mxGeometry x="140" y="240" width="180" height="60" as="geometry" />
        </mxCell>
        <mxCell id="hQrvFFB87dNUmF5vb5FR-16" value="Text" style="rounded=1;whiteSpace=wrap;html=1;" vertex="1" parent="1">
          <mxGeometry x="140" y="300" width="550" height="60" as="geometry" />
        </mxCell>
        <mxCell id="hQrvFFB87dNUmF5vb5FR-17" value="Text" style="rounded=1;whiteSpace=wrap;html=1;" vertex="1" parent="1">
          <mxGeometry x="140" y="360" width="180" height="60" as="geometry" />
        </mxCell>
        <mxCell id="hQrvFFB87dNUmF5vb5FR-18" value="" style="rounded=1;whiteSpace=wrap;html=1;" vertex="1" parent="1">
          <mxGeometry x="140" y="420" width="550" height="60" as="geometry" />
        </mxCell>
        <mxCell id="hQrvFFB87dNUmF5vb5FR-19" value="" style="rounded=0;whiteSpace=wrap;html=1;" vertex="1" parent="1">
          <mxGeometry x="230" y="480" width="340" height="160" as="geometry" />
        </mxCell>
        <mxCell id="hQrvFFB87dNUmF5vb5FR-20" value="" style="endArrow=none;html=1;rounded=0;entryX=0;entryY=1;entryDx=0;entryDy=0;exitX=1;exitY=0;exitDx=0;exitDy=0;" edge="1" parent="1" source="hQrvFFB87dNUmF5vb5FR-19" target="hQrvFFB87dNUmF5vb5FR-19">
          <mxGeometry width="50" height="50" relative="1" as="geometry">
            <mxPoint x="370" y="560" as="sourcePoint" />
            <mxPoint x="420" y="510" as="targetPoint" />
          </mxGeometry>
        </mxCell>
        <mxCell id="hQrvFFB87dNUmF5vb5FR-21" value="" style="endArrow=none;html=1;rounded=0;entryX=0;entryY=0;entryDx=0;entryDy=0;exitX=1;exitY=1;exitDx=0;exitDy=0;" edge="1" parent="1" source="hQrvFFB87dNUmF5vb5FR-19" target="hQrvFFB87dNUmF5vb5FR-19">
          <mxGeometry width="50" height="50" relative="1" as="geometry">
            <mxPoint x="370" y="560" as="sourcePoint" />
            <mxPoint x="420" y="510" as="targetPoint" />
          </mxGeometry>
        </mxCell>
        <mxCell id="hQrvFFB87dNUmF5vb5FR-22" value="Text" style="rounded=1;whiteSpace=wrap;html=1;" vertex="1" parent="1">
          <mxGeometry x="60" y="640" width="720" height="60" as="geometry" />
        </mxCell>
        <mxCell id="hQrvFFB87dNUmF5vb5FR-23" value="Design Firm Link" style="rounded=1;whiteSpace=wrap;html=1;" vertex="1" parent="1">
          <mxGeometry x="350" y="700" width="120" height="60" as="geometry" />
        </mxCell>
      </root>
    </mxGraphModel>
  </diagram>
</mxfile>
